<svg xmlns="http://www.w3.org/2000/svg" xml:lang="en" height="156.31599999999997pt" width="206.00320000000002pt" viewBox="-50.75120000000001 -36.379999999999995 206.00320000000002 156.31599999999997"><circle cx="-1.141259867721396e-14" cy="48.59999999999998" r="16.2" style="stroke:black;fill:none;stroke-width:2;" /><circle cx="-1.141259867721396e-14" cy="48.59999999999998" r="16.2" style="stroke:black;fill:none;stroke-width:2;" /><path d="M 0.0,-0.0 L 32.4,-0.0 L 35.099999999999994,-8.1 L 40.5,8.1 L 45.89999999999999,-8.1 L 51.3,8.1 L 56.699999999999996,-8.1 L 62.099999999999994,8.1 L 64.8,-0.0 L 97.19999999999999,-0.0" style="stroke:black;fill:none;stroke-width:2;stroke-linecap:round;stroke-linejoin:round;" /><path d="M 97.19999999999999,-0.0 L 97.19999999999997,45.684 M 105.29999999999998,45.684 L 89.09999999999998,45.684 M 105.29999999999998,51.51599999999999 L 89.09999999999998,51.51599999999999 M 97.19999999999997,51.51599999999999 L 97.19999999999997,97.19999999999999" style="stroke:black;fill:none;stroke-width:2;stroke-linecap:round;stroke-linejoin:round;" /><path d="M 97.19999999999997,97.19999999999999 L 48.59999999999998,97.19999999999999 L -1.4388490399142028e-14,97.19999999999997" style="stroke:black;fill:none;stroke-width:2;stroke-linecap:round;stroke-linejoin:round;" /><path d="M -1.4388490399142028e-14,97.19999999999997 L -1.4388490399142028e-14,110.15999999999998 L -8.100000000000014,110.15999999999998 L 8.099999999999985,110.15999999999998 M -5.670000000000014,114.04799999999999 L 5.669999999999985,114.04799999999999 M -1.6200000000000143,117.93599999999998 L 1.6199999999999857,117.93599999999998" style="stroke:black;fill:none;stroke-width:2;stroke-linecap:round;stroke-linejoin:round;" /><path d="M -1.4388490399142028e-14,97.19999999999997 L -1.2404562584523316e-14,64.79999999999998 L -1.2404562584523316e-14,64.79999999999998 M -1.0420634769904604e-14,32.399999999999984 L -1.0420634769904604e-14,32.399999999999984 L -8.436706955285893e-15,-1.4388490399142028e-14" style="stroke:black;fill:none;stroke-width:2;stroke-linecap:round;stroke-linejoin:round;" /><path d="M 3.2399999999999882,56.69999999999998 L -3.2400000000000118,56.69999999999998" style="stroke:black;fill:none;stroke-width:2;stroke-linecap:round;stroke-linejoin:round;" /><path d="M -1.1115009505021153e-14,43.73999999999999 L -1.0718223942097411e-14,37.259999999999984" style="stroke:black;fill:none;stroke-width:2;stroke-linecap:round;stroke-linejoin:round;" /><path d="M 3.239999999999989,40.499999999999986 L -3.240000000000011,40.499999999999986" style="stroke:black;fill:none;stroke-width:2;stroke-linecap:round;stroke-linejoin:round;" /><path d="M 0.0,-0.0 L 32.4,-0.0 L 35.099999999999994,-8.1 L 40.5,8.1 L 45.89999999999999,-8.1 L 51.3,8.1 L 56.699999999999996,-8.1 L 62.099999999999994,8.1 L 64.8,-0.0 L 97.19999999999999,-0.0" style="stroke:black;fill:none;stroke-width:2;stroke-linecap:round;stroke-linejoin:round;" /><path d="M 97.19999999999999,-0.0 L 97.19999999999997,45.684 M 105.29999999999998,45.684 L 89.09999999999998,45.684 M 105.29999999999998,51.51599999999999 L 89.09999999999998,51.51599999999999 M 97.19999999999997,51.51599999999999 L 97.19999999999997,97.19999999999999" style="stroke:black;fill:none;stroke-width:2;stroke-linecap:round;stroke-linejoin:round;" /><path d="M 97.19999999999997,97.19999999999999 L 48.59999999999998,97.19999999999999 L -1.4388490399142028e-14,97.19999999999997" style="stroke:black;fill:none;stroke-width:2;stroke-linecap:round;stroke-linejoin:round;" /><path d="M -1.4388490399142028e-14,97.19999999999997 L -1.4388490399142028e-14,110.15999999999998 L -8.100000000000014,110.15999999999998 L 8.099999999999985,110.15999999999998 M -5.670000000000014,114.04799999999999 L 5.669999999999985,114.04799999999999 M -1.6200000000000143,117.93599999999998 L 1.6199999999999857,117.93599999999998" style="stroke:black;fill:none;stroke-width:2;stroke-linecap:round;stroke-linejoin:round;" /><path d="M -1.4388490399142028e-14,97.19999999999997 L -1.2404562584523316e-14,64.79999999999998 L -1.2404562584523316e-14,64.79999999999998 M -1.0420634769904604e-14,32.399999999999984 L -1.0420634769904604e-14,32.399999999999984 L -8.436706955285893e-15,-1.4388490399142028e-14" style="stroke:black;fill:none;stroke-width:2;stroke-linecap:round;stroke-linejoin:round;" /><path d="M 3.2399999999999882,56.69999999999998 L -3.2400000000000118,56.69999999999998" style="stroke:black;fill:none;stroke-width:2;stroke-linecap:round;stroke-linejoin:round;" /><path d="M -1.1115009505021153e-14,43.73999999999999 L -1.0718223942097411e-14,37.259999999999984" style="stroke:black;fill:none;stroke-width:2;stroke-linecap:round;stroke-linejoin:round;" /><path d="M 3.239999999999989,40.499999999999986 L -3.240000000000011,40.499999999999986" style="stroke:black;fill:none;stroke-width:2;stroke-linecap:round;stroke-linejoin:round;" /><text x="48.599999999999994" y="-24.64" fill="black" font-size="14" font-family="sans-serif" text-anchor="middle" transform="rotate(0 48.599999999999994 -13.44)"><tspan x="48.599999999999994" dy="11.200000000000001">100KΩ</tspan></text><text x="108.53999999999998" y="40.89999999999999" fill="black" font-size="14" font-family="sans-serif" text-anchor="start" transform="rotate(0 108.53999999999998 46.49999999999999)"><tspan x="108.53999999999998" dy="11.200000000000001">0.1μF</tspan></text><text x="-19.44000000000001" y="40.89999999999998" fill="black" font-size="14" font-family="sans-serif" text-anchor="end" transform="rotate(0 -19.44000000000001 46.49999999999998)"><tspan x="-19.44000000000001" dy="11.200000000000001">10V</tspan></text><text x="48.599999999999994" y="-24.64" fill="black" font-size="14" font-family="sans-serif" text-anchor="middle" transform="rotate(0 48.599999999999994 -13.44)"><tspan x="48.599999999999994" dy="11.200000000000001">100KΩ</tspan></text><text x="108.53999999999998" y="40.89999999999999" fill="black" font-size="14" font-family="sans-serif" text-anchor="start" transform="rotate(0 108.53999999999998 46.49999999999999)"><tspan x="108.53999999999998" dy="11.200000000000001">0.1μF</tspan></text><text x="-19.44000000000001" y="40.89999999999998" fill="black" font-size="14" font-family="sans-serif" text-anchor="end" transform="rotate(0 -19.44000000000001 46.49999999999998)"><tspan x="-19.44000000000001" dy="11.200000000000001">10V</tspan></text></svg>