<svg xmlns="http://www.w3.org/2000/svg" xml:lang="en" height="135.57999999999998pt" width="158.0512pt" viewBox="-50.75120000000001 -36.379999999999995 158.0512 135.57999999999998"><circle cx="-1.141259867721396e-14" cy="48.59999999999998" r="16.2" style="stroke:black;fill:none;stroke-width:2;" /><circle cx="-1.141259867721396e-14" cy="48.59999999999998" r="16.2" style="stroke:black;fill:none;stroke-width:2;" /><path d="M 0.0,-0.0 L 32.4,-0.0 L 35.099999999999994,-8.1 L 40.5,8.1 L 45.89999999999999,-8.1 L 51.3,8.1 L 56.699999999999996,-8.1 L 62.099999999999994,8.1 L 64.8,-0.0 L 97.19999999999999,-0.0" style="stroke:black;fill:none;stroke-width:2;stroke-linecap:round;stroke-linejoin:round;" /><path d="M 97.19999999999999,-0.0 L 97.19999999999997,45.684 M 105.29999999999998,45.684 L 89.09999999999998,45.684 M 105.29999999999998,51.51599999999999 L 89.09999999999998,51.51599999999999 M 97.19999999999997,51.51599999999999 L 97.19999999999997,97.19999999999999" style="stroke:black;fill:none;stroke-width:2;stroke-linecap:round;stroke-linejoin:round;" /><path d="M 97.19999999999997,97.19999999999999 L 48.59999999999998,97.19999999999999 L -1.4388490399142028e-14,97.19999999999997" style="stroke:black;fill:none;stroke-width:2;stroke-linecap:round;stroke-linejoin:round;" /><path d="M -1.4388490399142028e-14,97.19999999999997 L -1.2404562584523316e-14,64.79999999999998 L -1.2404562584523316e-14,64.79999999999998 M -1.0420634769904604e-14,32.399999999999984 L -1.0420634769904604e-14,32.399999999999984 L -8.436706955285893e-15,-1.4388490399142028e-14" style="stroke:black;fill:none;stroke-width:2;stroke-linecap:round;stroke-linejoin:round;" /><path d="M 8.099999999999989,48.59999999999998 L 7.424999999999987,46.92285258773565 L 6.749999999999989,45.35999999999998 L 6.074999999999989,44.01794805791115 L 5.39999999999999,42.98815538347682 L 4.724999999999989,42.34080064564682 L 4.049999999999989,42.11999999999998 L 3.3749999999999893,42.340800645646816 L 2.699999999999989,42.98815538347682 L 2.024999999999989,44.017948057911156 L 1.3499999999999892,45.35999999999998 L 0.6749999999999889,46.92285258773565 L -1.141259867721396e-14,48.59999999999998 L -0.6750000000000108,50.27714741226432 L -1.3500000000000105,51.83999999999998 L -2.0250000000000115,53.18205194208882 L -2.700000000000011,54.211844616523145 L -3.37500000000001,54.859199354353144 L -4.050000000000011,55.079999999999984 L -4.725000000000011,54.85919935435315 L -5.40000000000001,54.211844616523145 L -6.075000000000012,53.18205194208881 L -6.750000000000011,51.83999999999999 L -7.4250000000000105,50.27714741226432 L -8.10000000000001,48.59999999999998" style="stroke:black;fill:none;stroke-width:2;stroke-linecap:round;stroke-linejoin:round;" /><path d="M 0.0,-0.0 L 32.4,-0.0 L 35.099999999999994,-8.1 L 40.5,8.1 L 45.89999999999999,-8.1 L 51.3,8.1 L 56.699999999999996,-8.1 L 62.099999999999994,8.1 L 64.8,-0.0 L 97.19999999999999,-0.0" style="stroke:black;fill:none;stroke-width:2;stroke-linecap:round;stroke-linejoin:round;" /><path d="M 97.19999999999999,-0.0 L 97.19999999999997,45.684 M 105.29999999999998,45.684 L 89.09999999999998,45.684 M 105.29999999999998,51.51599999999999 L 89.09999999999998,51.51599999999999 M 97.19999999999997,51.51599999999999 L 97.19999999999997,97.19999999999999" style="stroke:black;fill:none;stroke-width:2;stroke-linecap:round;stroke-linejoin:round;" /><path d="M 97.19999999999997,97.19999999999999 L 48.59999999999998,97.19999999999999 L -1.4388490399142028e-14,97.19999999999997" style="stroke:black;fill:none;stroke-width:2;stroke-linecap:round;stroke-linejoin:round;" /><path d="M -1.4388490399142028e-14,97.19999999999997 L -1.2404562584523316e-14,64.79999999999998 L -1.2404562584523316e-14,64.79999999999998 M -1.0420634769904604e-14,32.399999999999984 L -1.0420634769904604e-14,32.399999999999984 L -8.436706955285893e-15,-1.4388490399142028e-14" style="stroke:black;fill:none;stroke-width:2;stroke-linecap:round;stroke-linejoin:round;" /><path d="M 8.099999999999989,48.59999999999998 L 7.424999999999987,46.92285258773565 L 6.749999999999989,45.35999999999998 L 6.074999999999989,44.01794805791115 L 5.39999999999999,42.98815538347682 L 4.724999999999989,42.34080064564682 L 4.049999999999989,42.11999999999998 L 3.3749999999999893,42.340800645646816 L 2.699999999999989,42.98815538347682 L 2.024999999999989,44.017948057911156 L 1.3499999999999892,45.35999999999998 L 0.6749999999999889,46.92285258773565 L -1.141259867721396e-14,48.59999999999998 L -0.6750000000000108,50.27714741226432 L -1.3500000000000105,51.83999999999998 L -2.0250000000000115,53.18205194208882 L -2.700000000000011,54.211844616523145 L -3.37500000000001,54.859199354353144 L -4.050000000000011,55.079999999999984 L -4.725000000000011,54.85919935435315 L -5.40000000000001,54.211844616523145 L -6.075000000000012,53.18205194208881 L -6.750000000000011,51.83999999999999 L -7.4250000000000105,50.27714741226432 L -8.10000000000001,48.59999999999998" style="stroke:black;fill:none;stroke-width:2;stroke-linecap:round;stroke-linejoin:round;" /><text x="48.599999999999994" y="-24.64" fill="black" font-size="14" font-family="sans-serif" text-anchor="middle" transform="rotate(0 48.599999999999994 -13.44)"><tspan x="48.599999999999994" dy="11.200000000000001">1Ω</tspan></text><text x="85.86" y="40.89999999999999" fill="black" font-size="14" font-family="sans-serif" text-anchor="end" transform="rotate(0 85.86 46.49999999999999)"><tspan x="85.86" dy="11.200000000000001">10μF</tspan></text><text x="-19.44000000000001" y="40.89999999999998" fill="black" font-size="14" font-family="sans-serif" text-anchor="end" transform="rotate(0 -19.44000000000001 46.49999999999998)"><tspan x="-19.44000000000001" dy="11.200000000000001">10V</tspan></text><text x="48.599999999999994" y="-24.64" fill="black" font-size="14" font-family="sans-serif" text-anchor="middle" transform="rotate(0 48.599999999999994 -13.44)"><tspan x="48.599999999999994" dy="11.200000000000001">1Ω</tspan></text><text x="85.86" y="40.89999999999999" fill="black" font-size="14" font-family="sans-serif" text-anchor="end" transform="rotate(0 85.86 46.49999999999999)"><tspan x="85.86" dy="11.200000000000001">10μF</tspan></text><text x="-19.44000000000001" y="40.89999999999998" fill="black" font-size="14" font-family="sans-serif" text-anchor="end" transform="rotate(0 -19.44000000000001 46.49999999999998)"><tspan x="-19.44000000000001" dy="11.200000000000001">10V</tspan></text></svg>